{
  "asset": {
    "version": "2.0",
    "generator": "BaoliGuard Digital Twin Procedural Architect"
  },
  "scene": 0,
  "scenes": [
    {
      "name": "BaoliStepwellScene",
      "nodes": [
        0
      ]
    }
  ],
  "nodes": [
    {
      "name": "BaoliStepwell_Root",
      "mesh": 0
    }
  ],
  "materials": [
    {
      "name": "SandstoneAshlar",
      "pbrMetallicRoughness": {
        "baseColorFactor": [
          0.75,
          0.56,
          0.4,
          1.0
        ],
        "metallicFactor": 0.05,
        "roughnessFactor": 0.85
      }
    },
    {
      "name": "StepLimestone",
      "pbrMetallicRoughness": {
        "baseColorFactor": [
          0.65,
          0.48,
          0.35,
          1.0
        ],
        "metallicFactor": 0.05,
        "roughnessFactor": 0.9
      }
    },
    {
      "name": "AquiferWater",
      "pbrMetallicRoughness": {
        "baseColorFactor": [
          0.03,
          0.55,
          0.7,
          0.85
        ],
        "metallicFactor": 0.1,
        "roughnessFactor": 0.1
      },
      "alphaMode": "BLEND"
    },
    {
      "name": "SiltDeposit",
      "pbrMetallicRoughness": {
        "baseColorFactor": [
          0.28,
          0.2,
          0.15,
          1.0
        ],
        "metallicFactor": 0.0,
        "roughnessFactor": 0.95
      }
    },
    {
      "name": "IntakeConduit",
      "pbrMetallicRoughness": {
        "baseColorFactor": [
          0.45,
          0.35,
          0.28,
          1.0
        ],
        "metallicFactor": 0.05,
        "roughnessFactor": 0.85
      }
    },
    {
      "name": "VegetationCluster",
      "pbrMetallicRoughness": {
        "baseColorFactor": [
          0.15,
          0.55,
          0.2,
          1.0
        ],
        "metallicFactor": 0.0,
        "roughnessFactor": 0.9
      }
    }
  ],
  "meshes": [
    {
      "name": "BaoliStepwell_Geometry",
      "primitives": [
        {
          "attributes": {
            "POSITION": 0,
            "NORMAL": 1
          },
          "indices": 2,
          "material": 0
        }
      ]
    }
  ],
  "accessors": [
    {
      "bufferView": 0,
      "byteOffset": 0,
      "componentType": 5126,
      "count": 2452,
      "type": "VEC3",
      "max": [
        14.0,
        5.0,
        17.0
      ],
      "min": [
        -14.0,
        -4.7,
        -16.0
      ]
    },
    {
      "bufferView": 1,
      "byteOffset": 0,
      "componentType": 5126,
      "count": 2452,
      "type": "VEC3"
    },
    {
      "bufferView": 2,
      "byteOffset": 0,
      "componentType": 5123,
      "count": 3678,
      "type": "SCALAR"
    }
  ],
  "bufferViews": [
    {
      "buffer": 0,
      "byteOffset": 0,
      "byteLength": 29424,
      "target": 34962
    },
    {
      "buffer": 0,
      "byteOffset": 29424,
      "byteLength": 29424,
      "target": 34962
    },
    {
      "buffer": 0,
      "byteOffset": 58848,
      "byteLength": 7356,
      "target": 34963
    }
  ],
  "buffers": [
    {
      "byteLength": 66204,
      "uri": "data:application/octet-stream;base64,"
    }
  ]
}